<?xml version="1.0" encoding="utf-8"?>
<!-- Generator: Adobe Illustrator 21.0.0, SVG Export Plug-In . SVG Version: 6.00 Build 0)  -->
<svg version="1.1" id="Layer_1" xmlns="http://www.w3.org/2000/svg" xmlns:xlink="http://www.w3.org/1999/xlink" x="0px" y="0px"
	 viewBox="0 0 688.8203 121.4999" style="enable-background:new 0 0 688.8203 121.4999;" xml:space="preserve">
<g>
	<path d="M12.2805,24.932C5.3968,24.932,0,19.3505,0,12.4668S5.3968,0,12.2805,0s12.4668,5.583,12.4668,12.4668
		S19.1643,24.932,12.2805,24.932z M1.6748,119.4526V40.0033h21.2115v79.4493H1.6748z"/>
	<path d="M69.9611,120.9411c-12.0943,0-22.5138-4.093-31.4448-10.4195l8.1875-15.0713c7.07,5.5815,16.1873,9.3035,22.8848,9.3035
		c7.815,0,11.3508-3.1633,11.3508-8.1875c0-12.6515-37.7713-7.6272-37.7713-32.9333c0-14.3263,12.2805-25.1183,30.3288-25.1183
		c9.1173,0,18.978,3.3495,26.048,7.4425l-6.5128,15.4438c-6.6975-4.093-13.7675-6.8838-20.4665-6.8838
		c-7.07,0-10.4195,3.348-10.4195,7.4425c0,11.7218,38.5148,7.2563,38.5148,33.6768
		C100.6609,110.1491,87.6368,120.9411,69.9611,120.9411z"/>
	<path d="M167.8312,24.932c-6.8838,0-12.2805-5.5815-12.2805-12.4653S160.9474,0,167.8312,0c6.8853,0,12.4668,5.583,12.4668,12.4668
		S174.7164,24.932,167.8312,24.932z M157.2254,119.4526V40.0033h21.2115v79.4493H157.2254z"/>
	<path d="M254.7245,119.4526V70.3321c0-10.047-3.7205-14.3263-12.0943-14.3263c-7.2563,0-15.0698,4.6502-21.0238,11.163v52.2838
		H200.395V40.0033h20.4665v13.2118c9.3035-9.4898,19.1643-14.7003,29.3975-14.7003c17.491,0,25.677,10.9783,25.677,26.6083v54.3296
		H254.7245z"/>
	<path d="M362.6462,57.1218v36.4675c0,7.0715,3.3495,9.676,9.4883,9.676c2.2335,0,4.2793-0.3725,6.8853-0.9313l3.9067,16.375
		c-5.954,1.3023-11.3492,2.232-16.9308,2.232c-14.885,0-24.3748-7.2562-24.3748-28.4678V57.1218h-15.0713v-2.7908l15.0713-15.0713
		V26.422l21.0253-13.2118v26.793h22.1413v17.1185H362.6462z"/>
	<path d="M436.514,120.9411c-25.677,0-41.678-18.7918-41.678-41.3055s16.001-41.1208,41.678-41.1208
		c25.4893,0,41.3055,18.607,41.3055,41.1208S462.0033,120.9411,436.514,120.9411z M436.514,54.702
		c-12.653,0-20.6543,9.676-20.6543,24.9335c0,15.4423,8.0013,25.1183,20.6543,25.1183c12.4653,0,20.4665-9.676,20.4665-25.1183
		C456.9805,64.3781,448.9793,54.702,436.514,54.702z"/>
	<path d="M572.1554,121.4999h-3.7205l-24.3748-48.3771l-24.5595,48.3771h-3.722l-30.886-81.4966h23.4435l13.2103,44.655
		l20.4665-44.8413h3.722l21.0253,44.8413l12.8377-44.655h23.2588L572.1554,121.4999z"/>
	<path d="M667.6088,119.4526V70.3321c0-10.047-3.7205-14.3263-12.0927-14.3263c-7.2578,0-15.0713,4.6502-21.0253,11.163v52.2838
		h-21.2115V40.0033h20.4666v13.2118c9.3035-9.4898,19.1642-14.7003,29.3975-14.7003c17.491,0,25.677,10.9783,25.677,26.6083v54.3296
		H667.6088z"/>
</g>
</svg>
