<svg style="position: absolute; width: 0; height: 0; overflow: hidden;" version="1.1" xmlns="http://www.w3.org/2000/svg">
<defs>
<symbol id="icon-logo" viewBox="0 0 239 32">
<title>logo</title>
<path d="M15.55 0c-8.898 0-15.55 7.146-15.55 16s6.652 16 15.55 16c8.899 0 15.551-7.146 15.551-16s-6.652-16-15.551-16zM15.55 27.235c-6.112 0-10.427-4.943-10.427-11.235s4.314-11.237 10.427-11.237c6.113 0 10.427 4.945 10.427 11.237s-4.315 11.235-10.427 11.235z"></path>
<path d="M45.525 5.033h3.416v16.181c0 3.774-1.708 6.022-5.079 6.022-3.101 0-5.079-2.382-5.079-5.348h-5.034c0 5.753 4.314 10.112 10.112 10.112 6.382 0 10.112-4.584 10.112-10.921v-20.81h-8.449v4.764z"></path>
<path d="M101.145 31.73h5.034v-13.484h7.686v-4.764h-7.686v-8.449h14.966v-4.765h-20z"></path>
<path d="M143.841 9.258c0-5.753-4.045-8.989-9.034-8.989h-9.213v31.461h5.034v-13.483h0.719l6.742 13.484h5.753l-7.147-13.663c3.865-0.764 7.147-3.774 7.147-8.809zM134.852 13.482h-4.225v-8.449h4.225c2.697 0 4.045 1.798 4.045 4.225s-1.348 4.224-4.045 4.224z"></path>
<path d="M146.894 5.033h4.764v21.933h-4.764v4.764h14.562v-4.764h-4.765v-21.933h4.765v-4.765h-14.562z"></path>
<path d="M174.938 0.269h-9.214v31.461h9.214c8.989 0 15.506-6.023 15.506-15.73 0-9.708-6.517-15.732-15.506-15.732zM175.072 26.967h-4.314v-21.933h4.314c5.708 0 10.248 3.91 10.248 10.967s-4.54 10.966-10.248 10.966z"></path>
<path d="M199.564 18.247h7.147v-4.764h-7.147v-8.449h14.697v-4.765h-19.73v31.462h20v-4.764h-14.966z"></path>
<path d="M223.923 26.967v-26.698h-5.034v31.462h20v-4.764z"></path>
<path d="M83.651 14.371v-3.271h-3.378v3.271h-3.829c-1.126 0-2.023-0.288-2.663-0.857-0.636-0.565-0.948-1.328-0.948-2.327v-0.186c0-0.932 0.324-1.644 0.992-2.177 0.687-0.545 1.6-0.826 2.714-0.826h4.156v-3.196h-4.342c-1.067 0-2.035 0.154-2.876 0.454-0.849 0.308-1.569 0.727-2.137 1.256-0.573 0.529-1.015 1.173-1.316 1.916-0.296 0.735-0.446 1.537-0.446 2.386v0.371c0 1.264 0.387 2.351 1.146 3.236 0.608 0.707 1.343 1.229 2.189 1.553-0.849 0.336-1.58 0.865-2.189 1.572-0.759 0.885-1.146 1.972-1.146 3.236v0.371c0 0.849 0.15 1.652 0.446 2.386 0.296 0.739 0.739 1.391 1.312 1.928 0.573 0.541 1.292 0.968 2.141 1.276 0.842 0.3 1.81 0.454 2.876 0.454h7.298v-9.632h2.991v-3.196h-2.991zM72.833 20.783c0-1.004 0.312-1.77 0.948-2.343 0.64-0.581 1.537-0.873 2.663-0.873h3.829v6.432h-3.734c-1.114 0-2.027-0.277-2.714-0.822-0.668-0.533-0.992-1.256-0.992-2.209v-0.186z"></path>
</symbol>
<symbol id="icon-facebook" viewBox="0 0 16 16">
<title>facebook</title>
<path d="M9.5 3h2.5v-3h-2.5c-1.93 0-3.5 1.57-3.5 3.5v1.5h-2v3h2v8h3v-8h2.5l0.5-3h-3v-1.5c0-0.271 0.229-0.5 0.5-0.5z"></path>
</symbol>
<symbol id="icon-instagram" viewBox="0 0 16 16">
<title>instagram</title>
<path d="M14.5 0h-13c-0.825 0-1.5 0.675-1.5 1.5v13c0 0.825 0.675 1.5 1.5 1.5h13c0.825 0 1.5-0.675 1.5-1.5v-13c0-0.825-0.675-1.5-1.5-1.5zM11 2.5c0-0.275 0.225-0.5 0.5-0.5h2c0.275 0 0.5 0.225 0.5 0.5v2c0 0.275-0.225 0.5-0.5 0.5h-2c-0.275 0-0.5-0.225-0.5-0.5v-2zM8 5c1.656 0 3 1.344 3 3s-1.344 3-3 3c-1.656 0-3-1.344-3-3s1.344-3 3-3zM14 13.5v0c0 0.275-0.225 0.5-0.5 0.5h-11c-0.275 0-0.5-0.225-0.5-0.5v0-6.5h1.1c-0.066 0.322-0.1 0.656-0.1 1 0 2.762 2.237 5 5 5s5-2.238 5-5c0-0.344-0.034-0.678-0.1-1h1.1v6.5z"></path>
</symbol>
<symbol id="icon-twitter" viewBox="0 0 16 16">
<title>twitter</title>
<path d="M16 3.538c-0.588 0.263-1.222 0.438-1.884 0.516 0.678-0.406 1.197-1.050 1.444-1.816-0.634 0.375-1.338 0.65-2.084 0.797-0.6-0.638-1.453-1.034-2.397-1.034-1.813 0-3.281 1.469-3.281 3.281 0 0.256 0.028 0.506 0.084 0.747-2.728-0.138-5.147-1.444-6.766-3.431-0.281 0.484-0.444 1.050-0.444 1.65 0 1.138 0.578 2.144 1.459 2.731-0.538-0.016-1.044-0.166-1.488-0.409 0 0.013 0 0.028 0 0.041 0 1.591 1.131 2.919 2.634 3.219-0.275 0.075-0.566 0.116-0.866 0.116-0.212 0-0.416-0.022-0.619-0.059 0.419 1.303 1.631 2.253 3.066 2.281-1.125 0.881-2.538 1.406-4.078 1.406-0.266 0-0.525-0.016-0.784-0.047 1.456 0.934 3.181 1.475 5.034 1.475 6.037 0 9.341-5.003 9.341-9.341 0-0.144-0.003-0.284-0.009-0.425 0.641-0.459 1.197-1.038 1.637-1.697z"></path>
</symbol>
<symbol id="icon-youtube" viewBox="0 0 16 16">
<title>youtube</title>
<path d="M15.841 4.8c0 0-0.156-1.103-0.637-1.587-0.609-0.637-1.291-0.641-1.603-0.678-2.237-0.163-5.597-0.163-5.597-0.163h-0.006c0 0-3.359 0-5.597 0.163-0.313 0.038-0.994 0.041-1.603 0.678-0.481 0.484-0.634 1.587-0.634 1.587s-0.159 1.294-0.159 2.591v1.213c0 1.294 0.159 2.591 0.159 2.591s0.156 1.103 0.634 1.588c0.609 0.637 1.409 0.616 1.766 0.684 1.281 0.122 5.441 0.159 5.441 0.159s3.363-0.006 5.6-0.166c0.313-0.037 0.994-0.041 1.603-0.678 0.481-0.484 0.637-1.588 0.637-1.588s0.159-1.294 0.159-2.591v-1.213c-0.003-1.294-0.162-2.591-0.162-2.591zM6.347 10.075v-4.497l4.322 2.256-4.322 2.241z"></path>
</symbol>
<symbol id="icon-soundcloud" viewBox="0 0 16 16">
<title>soundcloud</title>
<path d="M13.937 8.034c-0.283 0-0.552 0.055-0.798 0.154-0.164-1.787-1.723-3.188-3.625-3.188-0.465 0-0.917 0.088-1.317 0.237-0.156 0.058-0.197 0.117-0.197 0.233v6.292c0 0.121 0.098 0.222 0.221 0.234 0.005 0.001 5.68 0.003 5.717 0.003 1.139 0 2.062-0.888 2.062-1.983s-0.924-1.983-2.063-1.983zM6.25 12h0.5l0.25-3.503-0.25-3.497h-0.5l-0.25 3.497zM4.75 12h-0.5l-0.25-2.543 0.25-2.457h0.5l0.25 2.5zM2.25 12h0.5l0.25-2-0.25-2h-0.5l-0.25 2zM0.25 11h0.5l0.25-1-0.25-1h-0.5l-0.25 1z"></path>
</symbol>
</defs>
</svg>
